<svg xmlns="http://www.w3.org/2000/svg" width="23" height="23" viewBox="0 0 23 23">
    <g fill="none" fill-rule="evenodd">
        <g fill="#FFF" fill-rule="nonzero">
            <g>
                <path d="M15.226 0c1.971 0 3.576 1.525 3.576 3.399v1.315h.622c1.971 0 3.576 1.526 3.576 3.4v5.481c0 1.873-1.605 3.399-3.576 3.399h-.627v4.309c0 .934-.802 1.697-1.785 1.697H5.923c-.983 0-1.785-.763-1.785-1.697v-4.31h-.562C1.605 16.994 0 15.469 0 13.596V8.113C0 6.24 1.605 4.714 3.576 4.714h.567V3.4C4.143 1.525 5.747 0 7.718 0zm2.217 14.205H5.492v7.108c0 .224.195.41.431.41h11.089c.235 0 .431-.186.431-.41v-7.108zm-1.679 4.414c.367 0 .665.243.665.548 0 .304-.298.547-.67.547H7.24c-.371 0-.669-.243-.669-.547 0-.305.298-.548.67-.548zm-.004-3.286c.371 0 .669.244.669.548 0 .304-.298.548-.67.548H7.24c-.366 0-.669-.244-.669-.548 0-.304.298-.548.67-.548zm3.664-9.327H3.576c-1.224 0-2.222.949-2.222 2.112V13.6c0 1.163.998 2.112 2.222 2.112h.567v-1.507h-.998c-.377 0-.677-.286-.677-.643 0-.358.3-.644.677-.644h16.55c.376 0 .677.286.677.644 0 .357-.3.643-.677.643h-.893v1.507h.622c1.224 0 2.222-.95 2.222-2.112V8.118c0-1.163-.998-2.112-2.222-2.112zm-4.208-4.719H7.713c-1.223 0-2.221.949-2.221 2.112v1.315h11.946V3.4c0-1.163-.998-2.112-2.222-2.112z" transform="translate(-898 -2935) translate(898 2935)"/>
            </g>
        </g>
    </g>
</svg>
