<svg xmlns="http://www.w3.org/2000/svg" width="21" height="22" viewBox="0 0 21 22">
    <g fill="none" fill-rule="evenodd">
        <g fill="#FFF" fill-rule="nonzero">
            <g>
                <path d="M20.68 20.039l-5.176-5.446c1.33-1.6 2.06-3.614 2.06-5.71C17.564 3.984 13.624 0 8.782 0 3.94 0 0 3.985 0 8.882c0 4.898 3.94 8.883 8.782 8.883 1.818 0 3.55-.555 5.031-1.607l5.217 5.487c.218.229.51.355.825.355.298 0 .58-.115.794-.323.455-.443.47-1.178.032-1.638zM8.783 2.317c3.58 0 6.491 2.945 6.491 6.565 0 3.62-2.912 6.566-6.49 6.566-3.58 0-6.492-2.945-6.492-6.566 0-3.62 2.912-6.565 6.491-6.565z" transform="translate(-1171 -57) translate(1171 57)"/>
            </g>
        </g>
    </g>
</svg>
