<svg xmlns="http://www.w3.org/2000/svg" width="22" height="23" viewBox="0 0 22 23">
    <g fill="none" fill-rule="evenodd">
        <g fill="#FFF" fill-rule="nonzero">
            <g>
                <g>
                    <path d="M18.52 13.71c-.48-.52-1.06-.798-1.673-.798-.61 0-1.193.273-1.693.793l-1.565 1.623c-.128-.072-.257-.139-.38-.206-.18-.093-.347-.18-.49-.273-1.466-.969-2.798-2.23-4.075-3.864-.619-.814-1.035-1.5-1.337-2.195.406-.387.782-.788 1.149-1.175.138-.144.277-.294.416-.438 1.04-1.082 1.04-2.483 0-3.565L7.52 2.205c-.153-.16-.312-.324-.46-.49-.297-.319-.61-.648-.93-.958C5.648.263 5.074 0 4.47 0c-.603 0-1.187.263-1.682.757l-.01.01-1.683 1.768C.46 3.195.1 3.998.02 4.93c-.118 1.504.307 2.906.634 3.823.802 2.251 2 4.338 3.787 6.574 2.168 2.695 4.777 4.823 7.757 6.322 1.139.562 2.659 1.226 4.357 1.34.104.005.212.01.311.01 1.144 0 2.104-.428 2.857-1.278.005-.01.015-.015.02-.026.257-.324.554-.618.866-.932.213-.211.43-.433.643-.665.49-.53.748-1.149.748-1.782 0-.64-.262-1.252-.762-1.768L18.52 13.71zm1.772 5.426c-.005 0-.005.005 0 0-.193.216-.391.412-.604.628-.322.32-.648.655-.955 1.03-.5.557-1.09.82-1.862.82-.074 0-.153 0-.227-.005-1.47-.098-2.837-.696-3.862-1.206-2.801-1.412-5.262-3.416-7.306-5.956C3.788 12.33 2.659 10.372 1.91 8.27c-.46-1.282-.628-2.282-.554-3.225.05-.603.272-1.102.683-1.53l1.688-1.757c.243-.237.5-.366.753-.366.312 0 .564.196.722.36l.015.016c.302.294.59.598.891.923.154.164.312.33.47.5l1.352 1.406c.525.546.525 1.051 0 1.597-.144.15-.282.299-.426.443-.416.443-.812.855-1.242 1.257-.01.01-.02.016-.025.026-.426.443-.346.876-.257 1.17l.014.046c.352.886.847 1.721 1.6 2.715l.004.006c1.367 1.751 2.807 3.117 4.396 4.163.203.134.411.242.61.345.177.093.346.18.49.273.02.01.039.026.059.036.168.088.326.129.49.129.41 0 .668-.268.752-.356l1.693-1.762c.169-.175.436-.386.748-.386.307 0 .56.2.713.376l.01.01 2.727 2.84c.51.525.51 1.066.005 1.612z" transform="translate(-899 -2888) translate(899 2888)"/>
                </g>
            </g>
        </g>
    </g>
</svg>
