<svg xmlns="http://www.w3.org/2000/svg" width="23" height="18" viewBox="0 0 23 18">
    <g fill="none" fill-rule="evenodd">
        <g fill="#FFF" fill-rule="nonzero">
            <g>
                <g>
                    <g>
                        <path d="M20.192 0C21.744 0 23.005 1.285 23 2.86v12.057c0 1.575-1.261 2.856-2.813 2.856H2.813C1.26 17.773 0 16.493 0 14.917V2.856C0 1.28 1.261 0 2.813 0zm-.005 1.31H2.813c-.843 0-1.528.695-1.528 1.55v12.057c0 .855.685 1.551 1.528 1.551h17.38c.842 0 1.527-.696 1.527-1.551h-.005V2.86c0-.856-.685-1.551-1.528-1.551zM2.256 3.35c.239-.264.645-.288.912-.052l6.184 5.469c.038.028.071.057.105.09 0 .004.004.01.01.014l1.519 1.341 7.789-6.91c.267-.235.673-.212.912.048.24.265.215.666-.048.902L13.991 9.26l5.672 5.322c.258.241.268.647.024.902-.129.133-.296.199-.468.199-.158 0-.32-.057-.444-.175l-5.744-5.393-1.61 1.426c-.12.109-.278.165-.43.165-.153 0-.306-.052-.43-.16L8.992 10.16l-5.777 5.341c-.124.114-.282.17-.44.17-.172 0-.344-.07-.473-.203-.243-.26-.229-.66.03-.902l5.69-5.265-5.715-5.049c-.267-.236-.291-.637-.052-.902z" transform="translate(-900 -2985) translate(1 2797) translate(899 181) translate(0 7)"/>
                    </g>
                </g>
            </g>
        </g>
    </g>
</svg>
