<svg xmlns="http://www.w3.org/2000/svg" width="44" height="44" viewBox="0 0 44 44">
    <g fill="none" fill-rule="evenodd">
        <g fill="#FFF" fill-rule="nonzero">
            <g>
                <g>
                    <g>
                        <path d="M21.973 0C9.838 0 0 9.838 0 21.973c0 12.134 9.838 21.972 21.973 21.972 12.134 0 21.972-9.838 21.972-21.972C43.945 9.835 34.107 0 21.973 0zm10.93 17.04l.017.7c0 7.152-5.44 15.392-15.391 15.392-3.055 0-5.897-.896-8.292-2.43.423.048.854.076 1.29.076 2.536 0 4.867-.865 6.719-2.315-2.368-.044-4.365-1.61-5.054-3.758.332.063.667.094 1.019.094.494 0 .972-.063 1.425-.187-2.474-.5-4.34-2.683-4.34-5.304v-.068c.731.406 1.564.648 2.45.678-1.45-.97-2.405-2.626-2.405-4.501 0-.992.266-1.92.73-2.72 2.667 3.274 6.655 5.428 11.151 5.653-.093-.396-.14-.81-.14-1.233 0-2.986 2.423-5.408 5.411-5.408 1.555 0 2.96.656 3.95 1.708 1.23-.244 2.39-.695 3.436-1.313-.404 1.264-1.261 2.324-2.379 2.994 1.09-.13 2.137-.423 3.106-.852-.725 1.083-1.645 2.036-2.702 2.794z" transform="translate(-953 -3047) translate(1 2797) translate(899 250) translate(53)"/>
                    </g>
                </g>
            </g>
        </g>
    </g>
</svg>
