<svg xmlns="http://www.w3.org/2000/svg" width="44" height="44" viewBox="0 0 44 44">
    <g fill="none" fill-rule="evenodd">
        <g fill="#FFF" fill-rule="nonzero">
            <g>
                <g>
                    <g>
                        <path d="M22 0C9.85 0 0 9.83 0 21.955 0 34.08 9.85 43.91 22 43.91s22-9.83 22-21.955C44 9.828 34.15 0 22 0zm5.687 21.952l-3.605.003-.003 13.173h-4.947V21.955h-3.3v-4.54l3.3-.002-.006-2.673c0-3.705 1.007-5.958 5.376-5.958h3.641v4.542h-2.277c-1.702 0-1.784.634-1.784 1.817l-.006 2.272h4.092l-.481 4.54z" transform="translate(-900 -3047) translate(1 2797) translate(899 250)"/>
                    </g>
                </g>
            </g>
        </g>
    </g>
</svg>
