<svg xmlns="http://www.w3.org/2000/svg" width="44" height="44" viewBox="0 0 44 44">
    <g fill="none" fill-rule="evenodd">
        <g fill="#FFF" fill-rule="nonzero">
            <g>
                <g>
                    <g>
                        <path d="M21.944 0c12.12 0 21.944 9.825 21.944 21.944 0 12.12-9.825 21.944-21.944 21.944C9.824 43.888 0 34.063 0 21.944 0 9.824 9.825 0 21.944 0zm1.024 19.382h-2.04c-2.722.002-5.45.037-8.149.339-1.282.142-2.346 1.103-2.645 2.405-.427 1.854-.432 3.878-.432 5.788 0 1.909 0 3.933.427 5.787.299 1.302 1.364 2.262 2.646 2.405 3.035.34 6.109.341 9.168.34h1.02c2.722-.003 5.449-.038 8.148-.34 1.282-.143 2.346-1.104 2.646-2.405.427-1.854.429-3.878.429-5.787v-.524c-.003-1.752-.036-3.578-.423-5.264-.3-1.302-1.366-2.262-2.647-2.405-3.036-.34-6.11-.341-9.168-.34zm.948 2.639V25.6c.478-.588.985-.885 1.53-.885.588 0 .985.31 1.182.922.099.328.15.868.15 1.64v3.252c0 .756-.051 1.3-.15 1.646-.198.608-.594.917-1.183.917-.526 0-1.034-.292-1.529-.903v.79h-1.48V22.022h1.48zm-5.535 2.793v6.241c0 .2.003.31.013.346.036.23.149.346.346.346.298 0 .608-.229.936-.692v-6.24h1.48v8.165h-1.48v-.89c-.588.674-1.147 1.002-1.691 1.002-.476 0-.805-.193-.953-.607-.081-.248-.131-.638-.131-1.215v-6.456h1.48zm11.777-.1c.743 0 1.331.279 1.745.837.31.413.458 1.051.458 1.923v1.692H29.4v1.448c0 .755.249 1.132.757 1.132.364 0 .577-.197.661-.593.013-.08.033-.41.033-1.002h1.509v.215c0 .478-.018.806-.032.954-.05.328-.166.624-.345.887-.41.593-1.017.885-1.79.885-.773 0-1.363-.279-1.79-.836-.315-.41-.475-1.052-.475-1.92v-2.86c0-.873.143-1.512.457-1.925.427-.559 1.015-.836 1.772-.836zm-13.472-2.693v1.542h-1.772v9.417h-1.646v-9.417h-1.74v-1.542h5.158zm7.967 4.025c-.242 0-.49.116-.737.36v4.977c.247.248.495.364.737.364.428 0 .644-.364.644-1.102V27.16c0-.736-.217-1.114-.644-1.114zm5.491 0c-.494 0-.742.378-.742 1.133v.756h1.48v-.756c0-.755-.248-1.133-.738-1.133zm-4.268-15.782h-1.491v6.525c0 .582.05.977.132 1.227.15.418.482.613.963.613.546 0 1.114-.33 1.709-1.013v.9h1.495v-8.252h-1.495v6.307c-.332.468-.646.7-.945.7-.2 0-.318-.119-.35-.35-.014-.037-.017-.148-.018-.35v-6.307zm-4.93-.1c-.745 0-1.327.282-1.74.846-.319.417-.469 1.062-.469 1.944v2.89c0 .877.15 1.528.468 1.94.414.564.996.845 1.741.845.75 0 1.331-.281 1.745-.844.313-.413.463-1.064.463-1.941v-2.89c0-.882-.15-1.527-.463-1.944-.414-.564-.996-.846-1.745-.846zM14.74 7.442h-1.745c.35 1.027.714 2.058 1.063 3.086.532 1.544.864 2.708 1.014 3.503v4.485h1.658V14.03l1.995-6.589h-1.677l-1.131 4.349-1.177-4.349zm6.207 4.068c.482 0 .713.38.713 1.144v3.471c0 .763-.231 1.145-.713 1.145s-.714-.381-.714-1.145v-3.471c0-.763.232-1.144.714-1.144z" transform="translate(-1006 -3047) translate(1 2797) translate(899 250) translate(106)"/>
                    </g>
                </g>
            </g>
        </g>
    </g>
</svg>
